<?xml version="1.0" encoding="utf-8"?>
<svg xmlns="http://www.w3.org/2000/svg" viewBox="-50 85 720 420">
  <path style="fill: rgb(16, 185, 129); stroke: rgb(16, 185, 129);" d="M 9.868 246.1 L 233.611 246.1 C 255.458 245.102 306.526 268.09 310.463 328.406 C 309.071 328.426 123.792 328.258 78.13 328.88 C 32.468 329.502 5.654 283.501 9.868 246.1 Z"/>
  <path style="stroke: rgb(4, 120, 87); fill: rgb(4, 120, 87);" d="M 310.465 347.791 L 310.897 373.951 C 309.592 418.822 277.296 448.206 234.147 450.052 L 23.572 449.836 C 21.962 449.382 11.504 450.352 9.735 435.783 C 9.735 435.783 9.186 361.907 9.519 357.952 C 9.852 353.997 13.573 348.059 22.275 347.575 L 310.465 347.791 Z"/>
  <text style="fill: rgb(31, 41, 55); font-family: Arial, sans-serif; font-size: 28px; stroke: rgb(31, 41, 55); white-space: pre;" transform="matrix(4.105487, 0, 0.00704, 4.845135, 526.326111, -1047.161133)" x="-49.015" y="308.306">chedy</text>
  <path style="stroke: rgb(110, 231, 183); fill: rgb(110, 231, 183);" d="M 310.564 123.633 L 310.995 149.887 C 309.69 194.915 277.392 224.405 234.239 226.257 L 23.643 226.041 C 22.03 225.584 11.573 226.557 9.804 211.937 C 9.804 211.937 9.253 137.8 9.589 133.829 C 9.921 129.861 13.641 123.903 22.344 123.417 L 310.564 123.633 Z" transform="matrix(-1, 0, 0, -1, 320, 350)"/>
</svg>
