<svg xmlns="http://www.w3.org/2000/svg" viewBox="-2 -2 244 84" role="img" aria-labelledby="schedy-title">
  <title id="schedy-title">Schedy</title>

  <!-- Suite container: rounded square shared by all future products -->
  <rect x="1" y="1" width="78" height="78" rx="18" fill="none" stroke="#10B981" stroke-width="4"/>

  <!-- S Symbol inside container (original organic bars, scaled) -->
  <g transform="translate(13, -8.5) scale(0.17)">
    <!-- Top bar - Schedy Green Light -->
    <path fill="#6EE7B7" d="M 9.436 226.367 L 9.005 200.113 C 10.31 155.085 42.608 125.595 85.761 123.743 L 296.357 123.959 C 297.97 124.416 308.427 123.443 310.196 138.063 C 310.196 138.063 310.747 212.2 310.411 216.171 C 310.079 220.139 306.359 226.097 297.656 226.583 L 9.436 226.367 Z"/>
    <!-- Middle bar - Schedy Green Primary (swoosh) -->
    <path fill="#10B981" d="M 9.868 246.1 L 233.611 246.1 C 255.458 245.102 306.526 268.09 310.463 328.406 C 309.071 328.426 123.792 328.258 78.13 328.88 C 32.468 329.502 5.654 283.501 9.868 246.1 Z"/>
    <!-- Bottom bar - Schedy Green Dark -->
    <path fill="#047857" d="M 310.465 347.791 L 310.897 373.951 C 309.592 418.822 277.296 448.206 234.147 450.052 L 23.572 449.836 C 21.962 449.382 11.504 450.352 9.735 435.783 C 9.735 435.783 9.186 361.907 9.519 357.952 C 9.852 353.997 13.573 348.059 22.275 347.575 L 310.465 347.791 Z"/>
  </g>

  <!-- Schedy wordmark -->
  <text x="96" y="52"
        style="font-family:'Inter',-apple-system,BlinkMacSystemFont,'Segoe UI',sans-serif;font-size:38px;font-weight:700;letter-spacing:-0.02em"
        fill="#1F2937">Schedy</text>
</svg>
